HIERARCHY
ROOT Hips
{
	OFFSET 0.000000 97.167313 0.000000
	CHANNELS 6 Xposition Yposition Zposition Xrotation Yrotation Zrotation
	JOINT Spine
	{
		OFFSET 0.000000 13.784798 0.064400
		CHANNELS 3 Xrotation Yrotation Zrotation
		JOINT Spine1
		{
			OFFSET 0.000000 12.037903 0.404700
			CHANNELS 3 Xrotation Yrotation Zrotation
			JOINT Spine2
			{
				OFFSET 0.000000 17.795601 0.420200
				CHANNELS 3 Xrotation Yrotation Zrotation
				JOINT Neck
				{
					OFFSET 0.000000 39.131302 11.954600
					CHANNELS 3 Xrotation Yrotation Zrotation
					JOINT Head
					{
						OFFSET 0.000000 14.456192 15.627699
						CHANNELS 3 Xrotation Yrotation Zrotation
						JOINT HeadTop_End
						{
							OFFSET 0.000000 15.703506 7.603401
							CHANNELS 3 Xrotation Yrotation Zrotation
							End Site
							{
								OFFSET 0.000000 17.447403 0.000000
							}
						}
					}
				}
				JOINT LeftShoulder
				{
					OFFSET 17.399500 24.608795 1.168800
					CHANNELS 3 Xrotation Yrotation Zrotation
					JOINT LeftArm
					{
						OFFSET 18.980635 5.765305 1.818600
						CHANNELS 3 Xrotation Yrotation Zrotation
						JOINT LeftForeArm
						{
							OFFSET 49.290169 0.000000 0.000000
							CHANNELS 3 Xrotation Yrotation Zrotation
							JOINT LeftHand
							{
								OFFSET 31.562012 0.000000 0.000000
								CHANNELS 3 Xrotation Yrotation Zrotation
								JOINT LeftHandThumb1
								{
									OFFSET 6.133995 -4.388519 7.076070
									CHANNELS 3 Xrotation Yrotation Zrotation
									JOINT LeftHandThumb2
									{
										OFFSET 6.037666 -3.485840 3.485847
										CHANNELS 3 Xrotation Yrotation Zrotation
										JOINT LeftHandThumb3
										{
											OFFSET 6.496506 -3.750763 3.750761
											CHANNELS 3 Xrotation Yrotation Zrotation
											JOINT LeftHandThumb4
											{
												OFFSET 5.616882 -3.242905 3.242910
												CHANNELS 3 Xrotation Yrotation Zrotation
												End Site
												{
													OFFSET -1.254608 7.132141 0.375429
												}
											}
										}
									}
								}
								JOINT LeftHandPinky1
								{
									OFFSET 18.920792 -0.453171 -11.426712
									CHANNELS 3 Xrotation Yrotation Zrotation
									JOINT LeftHandPinky2
									{
										OFFSET 4.919586 0.000000 0.000000
										CHANNELS 3 Xrotation Yrotation Zrotation
										JOINT LeftHandPinky3
										{
											OFFSET 5.233047 0.000000 0.000000
											CHANNELS 3 Xrotation Yrotation Zrotation
											JOINT LeftHandPinky4
											{
												OFFSET 5.571716 0.000000 0.000000
												CHANNELS 3 Xrotation Yrotation Zrotation
												End Site
												{
													OFFSET -3.459808 4.342407 -0.466164
												}
											}
										}
									}
								}
								JOINT LeftHandRing1
								{
									OFFSET 22.726120 -0.094986 -6.500475
									CHANNELS 3 Xrotation Yrotation Zrotation
									JOINT LeftHandRing2
									{
										OFFSET 6.408615 0.000000 0.000000
										CHANNELS 3 Xrotation Yrotation Zrotation
										JOINT LeftHandRing3
										{
											OFFSET 6.150223 0.000000 0.000000
											CHANNELS 3 Xrotation Yrotation Zrotation
											JOINT LeftHandRing4
											{
												OFFSET 6.145386 0.000000 0.000000
												CHANNELS 3 Xrotation Yrotation Zrotation
												End Site
												{
													OFFSET -3.671402 4.923981 -0.202372
												}
											}
										}
									}
								}
								JOINT LeftHandMiddle1
								{
									OFFSET 23.373947 0.000000 0.000001
									CHANNELS 3 Xrotation Yrotation Zrotation
									JOINT LeftHandMiddle2
									{
										OFFSET 6.996567 0.000000 0.000000
										CHANNELS 3 Xrotation Yrotation Zrotation
										JOINT LeftHandMiddle3
										{
											OFFSET 7.015945 0.000000 0.000000
											CHANNELS 3 Xrotation Yrotation Zrotation
											JOINT LeftHandMiddle4
											{
												OFFSET 7.721573 0.000000 0.000000
												CHANNELS 3 Xrotation Yrotation Zrotation
												End Site
												{
													OFFSET -4.651108 6.158463 0.251582
												}
											}
										}
									}
								}
								JOINT LeftHandIndex1
								{
									OFFSET 21.310577 -0.490082 6.209344
									CHANNELS 3 Xrotation Yrotation Zrotation
									JOINT LeftHandIndex2
									{
										OFFSET 7.536453 0.000000 0.000000
										CHANNELS 3 Xrotation Yrotation Zrotation
										JOINT LeftHandIndex3
										{
											OFFSET 7.512344 0.000000 0.000000
											CHANNELS 3 Xrotation Yrotation Zrotation
											JOINT LeftHandIndex4
											{
												OFFSET 10.212402 0.000000 0.000001
												CHANNELS 3 Xrotation Yrotation Zrotation
												End Site
												{
													OFFSET -5.180801 8.690506 1.388433
												}
											}
										}
									}
								}
							}
						}
					}
				}
				JOINT RightShoulder
				{
					OFFSET -17.399500 24.608795 1.168800
					CHANNELS 3 Xrotation Yrotation Zrotation
					JOINT RightArm
					{
						OFFSET -18.980635 5.765305 1.818600
						CHANNELS 3 Xrotation Yrotation Zrotation
						JOINT RightForeArm
						{
							OFFSET -49.290169 0.000000 0.000000
							CHANNELS 3 Xrotation Yrotation Zrotation
							JOINT RightHand
							{
								OFFSET -31.562012 0.000000 0.000000
								CHANNELS 3 Xrotation Yrotation Zrotation
								JOINT RightHandThumb1
								{
									OFFSET -6.133995 -4.388519 7.076070
									CHANNELS 3 Xrotation Yrotation Zrotation
									JOINT RightHandThumb2
									{
										OFFSET -6.037666 -3.485840 3.485847
										CHANNELS 3 Xrotation Yrotation Zrotation
										JOINT RightHandThumb3
										{
											OFFSET -6.496506 -3.750763 3.750761
											CHANNELS 3 Xrotation Yrotation Zrotation
											JOINT RightHandThumb4
											{
												OFFSET -5.616882 -3.242905 3.242910
												CHANNELS 3 Xrotation Yrotation Zrotation
												End Site
												{
													OFFSET 1.254608 7.132141 0.375429
												}
											}
										}
									}
								}
								JOINT RightHandIndex1
								{
									OFFSET -21.310577 -0.490082 6.209344
									CHANNELS 3 Xrotation Yrotation Zrotation
									JOINT RightHandIndex2
									{
										OFFSET -7.536453 0.000000 0.000000
										CHANNELS 3 Xrotation Yrotation Zrotation
										JOINT RightHandIndex3
										{
											OFFSET -7.512344 0.000000 0.000000
											CHANNELS 3 Xrotation Yrotation Zrotation
											JOINT RightHandIndex4
											{
												OFFSET -10.212402 0.000000 0.000001
												CHANNELS 3 Xrotation Yrotation Zrotation
												End Site
												{
													OFFSET 5.180801 8.690506 1.388433
												}
											}
										}
									}
								}
								JOINT RightHandMiddle1
								{
									OFFSET -23.373947 0.000000 0.000001
									CHANNELS 3 Xrotation Yrotation Zrotation
									JOINT RightHandMiddle2
									{
										OFFSET -6.996567 0.000000 0.000000
										CHANNELS 3 Xrotation Yrotation Zrotation
										JOINT RightHandMiddle3
										{
											OFFSET -7.015945 0.000000 0.000000
											CHANNELS 3 Xrotation Yrotation Zrotation
											JOINT RightHandMiddle4
											{
												OFFSET -7.721573 0.000000 0.000000
												CHANNELS 3 Xrotation Yrotation Zrotation
												End Site
												{
													OFFSET 4.651108 6.158463 0.251582
												}
											}
										}
									}
								}
								JOINT RightHandRing1
								{
									OFFSET -22.726120 -0.094986 -6.500475
									CHANNELS 3 Xrotation Yrotation Zrotation
									JOINT RightHandRing2
									{
										OFFSET -6.408615 0.000000 0.000000
										CHANNELS 3 Xrotation Yrotation Zrotation
										JOINT RightHandRing3
										{
											OFFSET -6.150223 0.000000 0.000000
											CHANNELS 3 Xrotation Yrotation Zrotation
											JOINT RightHandRing4
											{
												OFFSET -6.145386 0.000000 0.000000
												CHANNELS 3 Xrotation Yrotation Zrotation
												End Site
												{
													OFFSET 3.671402 4.923981 -0.202372
												}
											}
										}
									}
								}
								JOINT RightHandPinky1
								{
									OFFSET -18.920792 -0.453171 -11.426712
									CHANNELS 3 Xrotation Yrotation Zrotation
									JOINT RightHandPinky2
									{
										OFFSET -4.919586 0.000000 0.000000
										CHANNELS 3 Xrotation Yrotation Zrotation
										JOINT RightHandPinky3
										{
											OFFSET -5.233047 0.000000 0.000000
											CHANNELS 3 Xrotation Yrotation Zrotation
											JOINT RightHandPinky4
											{
												OFFSET -5.571716 0.000000 0.000000
												CHANNELS 3 Xrotation Yrotation Zrotation
												End Site
												{
													OFFSET 3.459808 4.342407 -0.466164
												}
											}
										}
									}
								}
							}
						}
					}
				}
			}
		}
	}
	JOINT LeftUpLeg
	{
		OFFSET 19.899099 -7.885101 -3.429500
		CHANNELS 3 Xrotation Yrotation Zrotation
		JOINT LeftLeg
		{
			OFFSET 1.745560 -36.997807 10.304700
			CHANNELS 3 Xrotation Yrotation Zrotation
			JOINT LeftFoot
			{
				OFFSET -1.745558 -29.803308 -13.615400
				CHANNELS 3 Xrotation Yrotation Zrotation
				JOINT LeftToeBase
				{
					OFFSET 1.181900 -18.539904 15.226099
					CHANNELS 3 Xrotation Yrotation Zrotation
					JOINT LeftToe_End
					{
						OFFSET -0.863701 1.402801 16.534700
						CHANNELS 3 Xrotation Yrotation Zrotation
						End Site
						{
							OFFSET 0.000000 16.616566 0.000000
						}
					}
				}
			}
		}
	}
	JOINT RightUpLeg
	{
		OFFSET -19.899099 -7.885101 -3.429500
		CHANNELS 3 Xrotation Yrotation Zrotation
		JOINT RightLeg
		{
			OFFSET -1.745560 -36.997807 10.304700
			CHANNELS 3 Xrotation Yrotation Zrotation
			JOINT RightFoot
			{
				OFFSET 1.745558 -29.803308 -13.615400
				CHANNELS 3 Xrotation Yrotation Zrotation
				JOINT RightToeBase
				{
					OFFSET -1.181900 -18.539904 15.226099
					CHANNELS 3 Xrotation Yrotation Zrotation
					JOINT RightToe_End
					{
						OFFSET 0.863701 1.402801 16.534700
						CHANNELS 3 Xrotation Yrotation Zrotation
						End Site
						{
							OFFSET 0.000000 16.616566 0.000000
						}
					}
				}
			}
		}
	}
}
MOTION
Frames: 5
Frame Time: 0.033333
0.300835 114.894470 8.684418 -84.538699 -3.986681 -2.312200 3.614606 -0.499313 -1.049903 7.073181 -0.311134 0.904991 7.077530 -0.351993 0.871312 7.776839 -1.122682 -0.003137 23.897556 -5.024855 -2.540822 -0.000000 0.000000 -0.000000 0.688437 -2.959234 -13.856101 32.264967 -27.227106 -39.391320 0.000016 -86.638819 0.000052 -16.248409 -10.185171 -2.471866 -2.727350 6.954377 8.905706 6.377066 15.562192 1.627040 -4.822082 19.918191 18.061279 0.000002 -0.000001 0.000000 1.402353 8.444643 -16.022734 0.275696 1.777700 -17.629830 0.275694 1.777712 -17.629833 0.000003 -0.000001 -0.000002 2.514782 9.008903 -24.228255 0.275347 1.776589 -17.618423 0.275714 1.777707 -17.629864 -0.000003 0.000001 -0.000000 3.513808 10.043511 -28.959114 0.286599 1.811630 -17.977944 0.276229 1.779390 -17.647015 0.000000 0.000001 0.000004 2.313281 6.195370 -29.868240 0.275698 1.777682 -17.629828 0.275695 1.777718 -17.629833 -0.000005 0.000001 0.000001 0.279460 6.610600 15.029925 32.668498 31.566395 25.753189 -0.000049 98.106481 0.000115 -34.330798 17.737115 23.475249 -4.641068 5.737694 -12.067285 6.358370 -14.447597 -2.112224 -2.916279 -51.629072 -24.519973 0.000001 0.000000 -0.000000 -1.747558 0.781614 24.100451 0.607749 -2.302207 29.571768 0.624069 -2.330726 29.975829 -0.000000 -0.000001 -0.000001 0.454848 -4.185391 24.092302 0.623781 -2.330217 29.968551 0.623771 -2.330221 29.968548 0.000000 0.000000 -0.000008 0.319945 -3.850109 19.646846 0.623774 -2.330219 29.968565 0.623777 -2.330221 29.968555 0.000003 -0.000001 -0.000002 0.310566 -3.823650 19.301809 0.443428 -1.985129 25.181340 0.443438 -1.985142 25.181342 -0.000002 -0.000000 0.000002 -16.903101 14.424238 23.157849 14.457152 1.985143 -0.940228 25.794915 30.150688 -27.990298 -0.543831 -0.000028 0.000017 -0.000001 -0.000002 -0.000000 -14.171234 -11.467717 -14.167411 8.224763 -0.107849 0.561532 34.118502 -29.461130 29.488136 -11.153386 -0.000014 0.000028 0.000000 0.000001 -0.000001 
0.317660 114.937157 8.683037 -84.353424 -3.989370 -2.326454 3.638595 -0.498632 -1.044471 7.093919 -0.314821 0.904992 7.115378 -0.351993 0.871313 7.771635 -1.097423 0.022948 24.002250 -4.927959 -2.696911 0.000001 0.000000 -0.000000 0.658304 -3.052819 -13.996125 32.366354 -26.936876 -39.224229 0.001356 -86.846934 0.001297 -16.300928 -10.282676 -2.407761 -2.720320 6.956625 8.889710 6.377064 15.562192 1.627034 -4.822083 19.918194 18.061284 0.000000 0.000003 -0.000002 1.409965 8.450244 -16.094303 0.280008 1.791229 -17.768647 0.277946 1.784774 -17.702104 -0.000000 -0.000002 -0.000001 2.521179 9.012132 -24.283325 0.279401 1.789287 -17.748545 0.277543 1.783508 -17.689413 -0.000000 0.000001 0.000003 3.519027 10.045124 -28.998009 0.290709 1.824252 -18.107523 0.276863 1.781342 -17.667203 -0.000002 0.000003 0.000007 2.313284 6.195368 -29.868240 0.278007 1.784913 -17.703896 0.273936 1.772142 -17.572941 -0.000001 0.000004 0.000004 0.281510 6.626660 14.974228 32.625563 31.609846 25.763566 -0.000170 98.096447 0.000212 -34.314044 17.760814 23.442039 -4.641069 5.737691 -12.067283 6.358369 -14.447590 -2.112223 -2.916298 -51.629069 -24.519978 -0.000005 0.000001 -0.000000 -1.747558 0.781613 24.100452 0.607749 -2.302209 29.571772 0.624070 -2.330729 29.975829 -0.000000 -0.000001 -0.000001 0.454852 -4.185390 24.092302 0.623778 -2.330218 29.968555 0.623772 -2.330222 29.968548 -0.000000 -0.000000 -0.000004 0.319945 -3.850111 19.646844 0.623777 -2.330218 29.968561 0.623782 -2.330222 29.968551 0.000001 -0.000001 -0.000007 0.310568 -3.823653 19.301809 0.443427 -1.985132 25.181342 0.443439 -1.985144 25.181338 0.000001 -0.000001 0.000004 -17.055585 14.378107 23.162833 14.450121 2.032974 -0.935899 25.783828 30.144996 -27.994386 -0.543829 0.000002 0.000002 -0.000001 -0.000000 -0.000000 -14.283671 -11.454841 -14.149375 8.130172 -0.138540 0.578548 34.161758 -29.460211 29.500871 -11.153390 0.000008 -0.000001 -0.000000 0.000001 -0.000001 
0.329286 114.981995 8.683731 -84.153716 -3.991687 -2.343376 3.665310 -0.498010 -1.039727 7.141217 -0.327669 0.909675 7.156842 -0.356957 0.872871 7.752093 -1.026972 0.094963 24.098726 -4.645625 -2.886075 -0.000003 -0.000000 -0.000000 0.627145 -3.146799 -14.145212 32.525904 -26.451291 -38.969460 -0.001777 -87.238940 -0.001806 -16.685867 -10.359739 -2.433717 -2.698525 6.961874 8.851339 6.377067 15.562193 1.627037 -4.822079 19.918194 18.061278 0.000006 0.000001 -0.000001 1.416517 8.466240 -16.257664 0.290104 1.822399 -18.088535 0.283163 1.800988 -17.868635 -0.000000 -0.000002 -0.000001 2.534397 9.015419 -24.414813 0.289167 1.819511 -18.058822 0.281994 1.797357 -17.831443 -0.000000 -0.000001 0.000005 3.531445 10.048939 -29.090756 0.300645 1.854293 -18.416550 0.278345 1.786037 -17.715334 -0.000000 0.000000 0.000004 2.313278 6.195361 -29.868243 0.283524 1.802129 -17.880510 0.272153 1.766522 -17.515185 -0.000004 0.000005 0.000002 0.291815 6.641983 14.913308 32.562507 31.665624 25.775875 -0.000106 98.087076 0.000150 -34.283329 17.783364 23.418924 -4.641067 5.737693 -12.067290 6.358367 -14.447599 -2.112222 -2.916287 -51.629076 -24.519973 -0.000000 0.000000 0.000001 -1.747559 0.781615 24.100445 0.607749 -2.302213 29.571768 0.624069 -2.330728 29.975829 -0.000001 -0.000001 -0.000002 0.454849 -4.185389 24.092302 0.623777 -2.330218 29.968551 0.623770 -2.330220 29.968541 -0.000000 0.000000 -0.000001 0.319945 -3.850108 19.646844 0.623777 -2.330220 29.968561 0.623782 -2.330219 29.968551 -0.000000 0.000001 -0.000001 0.310564 -3.823652 19.301809 0.443425 -1.985132 25.181340 0.443438 -1.985139 25.181340 0.000002 -0.000002 0.000005 -17.223017 14.325851 23.175962 14.442693 2.077732 -0.932650 25.778416 30.140115 -28.008181 -0.543855 0.000004 0.000000 -0.000001 0.000002 -0.000000 -14.406472 -11.441532 -14.123367 8.035881 -0.174155 0.594868 34.200427 -29.459712 29.513988 -11.153358 -0.000023 -0.000003 0.000001 0.000002 -0.000000 
0.330841 115.029221 8.692558 -83.921954 -3.998266 -2.360914 3.689241 -0.497579 -1.034238 7.192322 -0.347072 0.919807 7.194877 -0.370340 0.877330 7.721932 -0.919331 0.203561 24.200643 -4.196678 -3.103213 -0.000002 -0.000001 -0.000000 0.609612 -3.188653 -14.277839 32.688148 -25.841362 -38.697803 0.001153 -87.747256 0.001062 -17.325207 -10.419440 -2.587263 -2.672493 6.968063 8.805525 6.377063 15.562193 1.627036 -4.822081 19.918193 18.061286 0.000004 0.000001 -0.000002 1.423891 8.484083 -16.439543 0.301539 1.857023 -18.444603 0.289008 1.819040 -18.054043 -0.000001 0.000002 -0.000005 2.548194 9.015001 -24.571927 0.301038 1.855522 -18.429134 0.287331 1.813869 -18.000972 -0.000002 -0.000003 0.000007 3.546292 10.053472 -29.201460 0.312690 1.890078 -18.785389 0.280148 1.791650 -17.772769 -0.000003 -0.000002 0.000006 2.313276 6.195363 -29.868240 0.290200 1.822670 -18.091289 0.270403 1.760944 -17.458314 -0.000002 0.000005 0.000000 0.298912 6.669208 14.848416 32.502862 31.720341 25.788375 -0.000310 98.078545 0.000309 -34.254550 17.808958 23.396654 -4.641073 5.737696 -12.067284 6.358372 -14.447594 -2.112227 -2.916280 -51.629076 -24.519973 0.000007 0.000000 0.000002 -1.747560 0.781614 24.100452 0.607748 -2.302204 29.571772 0.624073 -2.330726 29.975829 -0.000000 -0.000003 -0.000002 0.454851 -4.185388 24.092302 0.623776 -2.330216 29.968558 0.623773 -2.330220 29.968544 -0.000000 -0.000001 -0.000007 0.319943 -3.850109 19.646848 0.623776 -2.330219 29.968561 0.623780 -2.330220 29.968555 0.000001 0.000001 -0.000003 0.310566 -3.823650 19.301807 0.443428 -1.985126 25.181342 0.443440 -1.985144 25.181340 0.000001 0.000001 0.000004 -17.426645 14.259675 23.203862 14.449692 2.129839 -0.932983 25.774311 30.137937 -28.034027 -0.543833 0.000033 -0.000025 -0.000001 0.000001 -0.000001 -14.571669 -11.422080 -14.087194 7.966618 -0.214067 0.606933 34.222738 -29.460552 29.518472 -11.153374 -0.000003 -0.000021 0.000000 0.000000 -0.000000 
0.326930 115.078278 8.711243 -83.649996 -4.013045 -2.377978 3.704588 -0.499173 -1.026710 7.224662 -0.371051 0.930583 7.222528 -0.387535 0.882811 7.683100 -0.782498 0.339390 24.329477 -3.601736 -3.344496 0.000001 -0.000000 0.000000 0.604153 -3.151675 -14.367281 32.845577 -25.183789 -38.428714 -0.001092 -88.313205 -0.001041 -18.185964 -10.470245 -2.857809 -2.650679 6.973236 8.767139 6.377058 15.562192 1.627036 -4.822077 19.918193 18.061283 -0.000001 0.000001 -0.000001 1.427605 8.492238 -16.566159 0.309610 1.881032 -18.692066 0.293114 1.831584 -18.182891 -0.000000 0.000001 -0.000004 2.559796 9.014777 -24.703556 0.311172 1.885617 -18.739421 0.291849 1.827697 -18.142999 -0.000000 0.000000 0.000005 3.558753 10.057253 -29.294213 0.322962 1.920002 -19.094432 0.281639 1.796339 -17.820915 -0.000001 0.000003 0.000007 2.313287 6.195370 -29.868240 0.295845 1.839857 -18.267916 0.268747 1.755650 -17.404102 -0.000004 0.000001 0.000001 0.297892 6.721230 14.780867 32.469374 31.761599 25.799370 0.000121 98.070151 -0.000091 -34.242197 17.839013 23.365421 -4.641068 5.737694 -12.067286 6.358369 -14.447597 -2.112218 -2.916298 -51.629072 -24.519981 0.000004 -0.000001 -0.000000 -1.747556 0.781612 24.100452 0.607749 -2.302210 29.571768 0.624066 -2.330727 29.975832 -0.000000 -0.000002 0.000003 0.454850 -4.185388 24.092304 0.623777 -2.330215 29.968561 0.623771 -2.330220 29.968548 -0.000000 0.000001 -0.000006 0.319948 -3.850109 19.646846 0.623777 -2.330220 29.968568 0.623781 -2.330224 29.968551 -0.000003 0.000001 -0.000003 0.310568 -3.823648 19.301807 0.443428 -1.985130 25.181340 0.443441 -1.985140 25.181343 0.000000 -0.000002 0.000002 -17.675097 14.177310 23.243168 14.477511 2.192618 -0.935978 25.767273 30.137462 -28.071777 -0.543835 0.000004 0.000006 -0.000001 -0.000001 0.000001 -14.790314 -11.394116 -14.044372 7.920010 -0.255188 0.615666 34.235145 -29.460949 29.520870 -11.153386 -0.000017 0.000006 0.000000 0.000003 -0.000000 
